# xmcd
#
# Track frame offsets: 
#        150
#        13162
#        22462
#        33337
#        44325
#        50775
#        64912
#        76612
#        90000
#        102825
#        116775
#        126975
#        141825
#        162600
#        181125
#        199725
#        209362
#        216525
#        232087
#        260925
#        267600
#        278250
#        286200
#        297525
#
# Disc length: 4155 seconds
#
# Revision: 6
# Processed by: cddbd v1.5.2PL0 Copyright (c) Steve Scherf et al.
# Submitted via: ExactAudioCopyFreeDBPlugin 1.0
#
DISCID=7e103918
DTITLE=Various Artist - Rounder Banjo
DYEAR=1987
DGENRE=Bluegrass
TTITLE0=JD Crowe And The New South - Runaround
TTITLE1=Allen Shelton - Shelton Special
TTITLE2=Nashville Bluegrass Band - Old Timey Risin' Damp
TTITLE3=Here Today - Foggy Mountain Chimes
TTITLE4=White Brothers (Alan Munde) - Banjo Boy Chimes
TTITLE5=Bill Keith - Clinging Vine
TTITLE6=John Hickman - Don't Mean Maybe
TTITLE7=Johnnie Whisnant - Maple Leaf Rag
TTITLE8=Johnson Mountain Boys, The - Five Speed
TTITLE9=Hazel And Alice - Banjo Picking Girl
TTITLE10=Joe Val - Lonesome Road Blues
TTITLE11=John Hartford - Scapin' Out On The Roof
TTITLE12=Kosek and Glaser - Le Chamoix Cornu
TTITLE13=Country Cooking - Huckling The Berries
TTITLE14=Tony Trischka - A Robot Plane Flies Over Arkansas
TTITLE15=Bray Brothers, The - Harley's Breakdown
TTITLE16=Snuffy and Pappy - House Of David Blues
TTITLE17=William J. Ball - Dream Dance
TTITLE18=Béla Fleck - Perplexed
TTITLE19=Connie and Babe - Thunderhead
TTITLE20=Don Stover - White Oak Breakdown
TTITLE21=Boone Creek - White House Blues
TTITLE22=Ted Lundy - Goodbye Liza Jane
TTITLE23=Butch Robins - Kansas City Railroad Blues
EXTD=
EXTT0=
EXTT1=
EXTT2=
EXTT3=
EXTT4=
EXTT5=
EXTT6=
EXTT7=
EXTT8=
EXTT9=
EXTT10=
EXTT11=
EXTT12=
EXTT13=
EXTT14=
EXTT15=
EXTT16=
EXTT17=
EXTT18=
EXTT19=
EXTT20=
EXTT21=
EXTT22=
EXTT23=
PLAYORDER=
